<mxfile host="app.diagrams.net" modified="2023-12-15T16:54:29.778Z" agent="Mozilla/5.0 (Windows NT 10.0; Win64; x64) AppleWebKit/537.36 (KHTML, like Gecko) Chrome/120.0.0.0 Safari/537.36" version="22.1.9" etag="PLLR_KIkI63oVs4i5fIe" type="github">
  <diagram name="페이지-1" id="8S7JKz4OwOFPe5QIlASE">
    <mxGraphModel>
      <root>
        <mxCell id="0" />
        <mxCell id="1" parent="0" />
      </root>
    </mxGraphModel>
  </diagram>
</mxfile>
